<?xml version="1.0" encoding="utf-8"?>
<!-- Generator: Adobe Illustrator 19.0.0, SVG Export Plug-In . SVG Version: 6.00 Build 0)  -->
<svg version="1.1" id="Layer_1" xmlns="http://www.w3.org/2000/svg" xmlns:xlink="http://www.w3.org/1999/xlink" x="0px" y="0px"
	 viewBox="-37 279.5 398.3 37.8" style="enable-background:new -37 279.5 398.3 37.8;" xml:space="preserve">
<style type="text/css">
	.st0{fill:#FFFFFF;}
</style>
<g>
	<path class="st0" d="M-17.4,308.5v-2.1c-0.8,0.6-1.1,0.8-1.5,1c-1,0.5-3.5,1.6-6.6,1.6c-3.9,0-6.5-1.6-7.6-2.5
		c-0.6-0.5-1.6-1.4-2.4-3.1c-0.9-1.7-1.3-3.6-1.3-5.5c0-1,0.2-3.9,1.8-6.5c1.2-1.9,4.1-5,9.7-5c4.4,0,6.5,1.7,8,2.8v-9.3h9.6v28.7
		H-17.4z M-17.8,295.5c-0.5-1.1-1.7-2.6-4.5-2.6c-3,0-5,1.7-5,4.8c0,0.4,0,1.2,0.4,2.2c0.8,1.9,2.6,2.8,4.5,2.8c3,0,5-2.1,5-5
		C-17.4,297.3-17.4,296.3-17.8,295.5z"/>
	<path class="st0" d="M15.4,308.5c-0.2-1-0.3-1.1-0.4-2.1c-1.5,0.6-5.7,2.7-10.7,2.7c-7,0-9.5-3.6-9.5-6.9c0-0.5,0.1-2.2,1.1-3.6
		c1.2-1.7,3.5-2.4,4-2.6c3.7-1.1,11.1-1.2,14.9-1.3c0-0.7,0-1.2-0.4-1.7c-0.9-1.2-2.9-1.3-4.2-1.3c-1.3,0-3.8,0.2-4.8,1.2
		c-0.2,0.2-0.3,0.4-0.4,0.7h-9.2c0.2-1.2,0.7-4.1,3.8-5.7c1.9-1,5.3-1.7,10.4-1.7c0.8,0,4.7,0,7.8,0.6c0.6,0.1,3.1,0.5,4.7,2.1
		c1.9,1.9,1.7,4.3,1.7,5.2v11.2c0,1.9,0.4,2.4,1.2,3.1H15.4z M8.6,299c-1.9,0.2-3,0.4-3.6,1.1c-0.2,0.2-0.4,0.6-0.4,1.2
		c0,0.5,0.2,0.8,0.3,0.9c0.4,0.7,1.3,1.2,3,1.2c0.8,0,2.6-0.2,4.5-1.2c0.2-0.1,1-0.6,1.6-1.2c0.6-0.7,0.8-1.4,1-2.4
		C12.9,298.8,10.8,298.8,8.6,299z"/>
	<path class="st0" d="M35.6,308.5c-1,0-2,0-3-0.2c-0.3,0-2-0.3-3-1.5c-0.6-0.8-0.9-1.7-0.8-3.3l0.2-10.1h-3v-5.6h3.1l0.1-7.3h9.2
		v7.3h3.5v5.6h-3.5v7.1c0,0.2,0,0.6,0.1,0.8c0.2,0.8,0.9,1.1,2.2,1.1h1.1v6.1H35.6z"/>
	<path class="st0" d="M63.6,308.5c-0.2-1-0.3-1.1-0.4-2.1c-1.5,0.6-5.7,2.7-10.7,2.7c-7,0-9.5-3.6-9.5-6.9c0-0.5,0.1-2.2,1.1-3.6
		c1.2-1.7,3.5-2.4,4-2.6c3.7-1.1,11.1-1.2,14.9-1.3c0-0.7,0-1.2-0.4-1.7c-0.9-1.2-2.9-1.3-4.2-1.3c-1.3,0-3.8,0.2-4.8,1.2
		c-0.2,0.2-0.3,0.4-0.4,0.7H44c0.2-1.2,0.7-4.1,3.8-5.7c1.9-1,5.3-1.7,10.4-1.7c0.8,0,4.7,0,7.8,0.6c0.6,0.1,3.1,0.5,4.7,2.1
		c1.9,1.9,1.7,4.3,1.7,5.2v11.2c0,1.9,0.4,2.4,1.2,3.1H63.6z M56.9,299c-1.9,0.2-3,0.4-3.6,1.1c-0.2,0.2-0.4,0.6-0.4,1.2
		c0,0.5,0.2,0.8,0.3,0.9c0.4,0.7,1.3,1.2,3,1.2c0.8,0,2.6-0.2,4.5-1.2c0.2-0.1,1-0.6,1.6-1.2c0.6-0.7,0.8-1.4,1-2.4
		C61.1,298.8,59,298.8,56.9,299z"/>
	<path class="st0" d="M91.2,294.9c-0.5,0-1,0-1.4,0.1c-0.5,0-2.6,0.2-3.4,1.9c-0.3,0.6-0.4,1.3-0.4,2v9.6h-9.5V287h9.6v3.4
		c1.6-2.5,4.2-3.3,5.2-3.6c0.5-0.1,1.1-0.2,2.3-0.2v8.5C92.7,295,92,294.9,91.2,294.9z"/>
	<path class="st0" d="M95.1,284.9v-5h9.5v5H95.1z M95.1,308.5V287h9.5v21.5H95.1z"/>
	<path class="st0" d="M136.6,308.9c-0.2,1.3-0.6,3.3-3,5.1c-2.2,1.7-5.6,3-11.8,3c-7.1,0-11.1-2.5-12.7-5.2
		c-0.9-1.4-1.1-2.9-1.1-3.4h9.7c0,0.8,0.2,1.4,0.8,1.9c0.9,1,2.3,1.2,3.6,1.2c3,0,4.3-1,4.8-2.4c0.2-0.5,0.3-1,0.3-2
		c0-0.7,0-1.5,0-2.2c-0.3,0.2-0.9,0.6-1.5,0.9c-1.1,0.5-3.6,1.3-6.9,1.3c-0.6,0-2.1,0-3.8-0.5c-2.2-0.6-7.5-2.8-7.5-9.5
		c0-5.1,3.1-7.8,4.7-8.7c1.1-0.7,3.6-1.7,7.1-1.7c3.1,0,5.4,0.9,6.5,1.5c0.5,0.2,1,0.6,1.5,0.9V287h9.6v19.7
		C136.8,307.5,136.7,308.2,136.6,308.9z M126.4,294.5c-0.6-0.7-2.1-1.7-4.5-1.7c-3.7,0.1-4.7,2.6-4.7,4.1c0,0.3,0,0.9,0.4,1.5
		c0.5,1.1,1.9,2.5,4.7,2.5c2.5,0,4.9-1.4,4.9-4.2C127.2,296.4,127.2,295.4,126.4,294.5z"/>
	<path class="st0" d="M160.2,308.5v-10.5c0-1.5,0-2.2-0.3-2.9c-0.7-1.7-2.6-2.4-4.3-2.4c-1.4,0-2.8,0.3-3.9,1.4
		c-0.2,0.2-0.6,0.6-0.9,1.3c-0.3,0.8-0.5,1.6-0.5,3.4v9.8h-9.5v-28.7h9.6v9.8c1-0.9,1.4-1.2,2-1.6c1.2-0.7,3.4-1.7,6.8-1.7
		c4.4,0,7.3,1.8,8.5,3c0.6,0.6,0.9,1.2,1.1,1.5c0.9,1.8,0.9,3.8,0.9,5.7v12H160.2z"/>
	<path class="st0" d="M181,308.5c-1,0-2,0-3-0.2c-0.3,0-2-0.3-3-1.5c-0.6-0.8-0.9-1.7-0.8-3.3l0.2-10.1h-3v-5.6h3.1l0.1-7.3h9.2v7.3
		h3.5v5.6h-3.5v7.1c0,0.2,0,0.6,0.1,0.8c0.2,0.8,0.9,1.1,2.2,1.1h1.1v6.1H181z"/>
	<path class="st0" d="M214.6,305.7c-2.2,2.1-5.4,3.5-11.7,3.5c-1.3,0-4.6,0-8.2-0.9c-0.5-0.1-3.2-0.7-4.8-2.4
		c-1-1.1-1.4-2.4-1.5-3.9l9.7-0.4c0.2,0.6,0.3,0.9,0.5,1.1c1,1.1,3.2,1.4,4.4,1.4c1.6,0,2.6-0.3,3.2-0.7c0.5-0.4,0.6-0.9,0.6-1.2
		c0-0.4-0.2-0.7-0.5-0.9c-0.9-0.6-3.8-0.9-6.9-1.4c-1.5-0.2-2.9-0.5-4.3-0.9c-1.5-0.4-3.3-0.9-4.4-2.2c-0.5-0.6-1.2-1.7-1.2-3.5
		c0-3.6,2.9-5,3.9-5.4c1.9-0.9,4.7-1.5,9.5-1.5c6.5,0,10.1,1.6,12,3.9c0.2,0.2,0.8,1,1.2,1.9c0.1,0.3,0.2,0.7,0.4,1.3l-9.5,0.4
		c-0.1-0.4-0.1-0.4-0.2-0.6c-0.5-0.9-2.1-1.7-4.5-1.7c-2,0-3.4,0.6-3.4,1.7c0,0.2,0,0.5,0.4,0.8c0.9,0.7,4.5,1.1,5.6,1.2
		c1.6,0.2,3.2,0.4,4.7,0.6c0.2,0,3,0.4,4.5,1.3c2.2,1.3,2.4,3.4,2.4,4.3C216.5,302.5,216.3,304,214.6,305.7z"/>
	<path class="st0" d="M219.1,308.5v-7.5h9.3v7.5H219.1z"/>
	<path class="st0" d="M265.2,308.5v-11.6c0-0.6,0-1.4-0.2-1.9c-0.8-2.1-3-1.9-3.2-1.9c-3.9,0.2-3.7,4.2-3.7,4.7v10.8h-9.2v-10.5
		c0-0.9,0-2.7-0.6-3.6c-1-1.7-2.9-1.6-3.2-1.6c-0.4,0-2.6,0-3.4,2.2c-0.2,0.5-0.2,1.1-0.2,1.5v11.9h-9.3V287h9v3.6
		c0.3-0.6,0.4-0.8,0.6-1.1c1.3-1.5,3.9-2.7,7.3-2.8c3.1,0,5.4,0.9,6.6,2.1c0.6,0.6,0.9,1.3,1.1,1.5c1.5-1.7,4.5-3.6,8.6-3.6
		c2.3,0,6.5,0.8,8.2,4c0.6,1.1,0.7,2.3,0.7,3.5v14.3H265.2z"/>
	<path class="st0" d="M287.6,299.1c0,0.2,0.2,0.8,0.4,1.4c1.4,2.9,4.6,3.2,5.5,3.2c1.9,0,3.4-0.8,3.9-1.2c0.4-0.3,0.8-0.6,0.9-0.8
		l10,0.5c-0.4,0.8-1.3,2.3-3.1,3.7c-0.3,0.2-1.1,0.8-2.1,1.3c-3.9,1.9-9.1,1.9-10.1,1.9c-4.6,0-10.1-1.1-13.2-4.9
		c-0.9-1.1-2.2-3.1-2.2-6.6c0-1.1,0.2-3.9,2.2-6.5c0.9-1.1,1.8-1.7,2.2-2c2.3-1.6,5.2-2.8,11.2-2.8c4.5,0,9.4,0.7,12.7,4.2
		c0.6,0.6,1.9,2.2,2.6,4.6c0.4,1.3,0.4,2.6,0.4,3.9H287.6z M293.4,291.9c-0.6,0-3.1,0-4.6,1.8c-0.5,0.6-0.6,0.9-0.9,1.6h11
		C298.4,293.9,297,291.9,293.4,291.9z"/>
</g>
<g>
	<path class="st0" d="M328,297.5c-0.4,0.2-0.8,0.3-1.3,0.4c-0.7,0.1-1,0.1-2.9,0.1h-3.2v-11h4.6c1.6,0,2.4,0.2,3,0.7
		c0.6,0.5,0.9,1.2,0.9,2.1c0,1.3-0.7,2.1-2.1,2.4c1.6,0.3,2.6,1.3,2.6,2.8C329.5,296.1,328.9,297,328,297.5z M327.1,288.5
		c-0.5-0.3-1-0.4-2.2-0.4h-3.1v3.6h2.9c1.4,0,2-0.1,2.4-0.5c0.4-0.3,0.6-0.8,0.6-1.4C327.8,289.2,327.6,288.8,327.1,288.5z
		 M324.6,292.8h-2.8v4.1h3.3c0.9,0,1.4-0.1,1.9-0.3c0.7-0.3,1.1-0.9,1.1-1.7C328.2,293.4,327.2,292.8,324.6,292.8z"/>
	<path class="st0" d="M331.8,298v-11h7.9v1.2h-6.6v3.6h6v1.1h-6v4h7.1v1.2H331.8z"/>
	<path class="st0" d="M346.4,288.1v9.9h-1.3v-9.9h-3.9V287h9v1.1H346.4z"/>
	<path class="st0" d="M358.4,298l-1.4-3.3h-4.9l-1.4,3.3h-1.3l4.7-11h0.9l4.6,11H358.4z M354.6,288.8l-2.1,4.9h4L354.6,288.8z"/>
</g>
</svg>
